<svg width="162" height="30" viewBox="0 0 162 30" fill="none" xmlns="http://www.w3.org/2000/svg">
<path d="M6.32037 24.1434L12.1593 17.0341V18.3267L6.65467 11.3734H12.2708L15.636 15.5409H14.2542L17.5972 11.3734H23.191L17.4634 18.3935L17.1737 16.5438L23.5253 24.1434H17.7309L14.1205 19.7084H15.5914L12.0033 24.1434H6.32037Z" fill="#F79009"/>
<path d="M24.3535 11.1283L26.9164 11.6631L29.457 11.1283V24.1434H24.3535V11.1283ZM26.9164 10.2814C26.0547 10.2814 25.3564 10.066 24.8215 9.63509C24.2867 9.20422 24.0192 8.62478 24.0192 7.89677C24.0192 7.1539 24.2867 6.56703 24.8215 6.13617C25.3564 5.7053 26.0547 5.48987 26.9164 5.48987C27.8079 5.48987 28.5136 5.7053 29.0336 6.13617C29.5685 6.56703 29.8359 7.1539 29.8359 7.89677C29.8359 8.62478 29.5685 9.20422 29.0336 9.63509C28.5136 10.066 27.8079 10.2814 26.9164 10.2814Z" fill="#F79009"/>
<path d="M31.507 24.1434V20.6222L39.9312 14.4266L43.5861 14.9838H31.5516V11.3734H45.525V14.8946L37.1008 21.0902L34.0031 20.533H45.5696V24.1434H31.507Z" fill="#F79009"/>
<path d="M46.9738 11.3734H52.0773L52.9464 16.6552V24.1434H47.8429V15.8752L46.9738 11.3734ZM57.2477 10.9945C58.4363 10.9945 59.4466 11.2397 60.2786 11.73C61.1106 12.2203 61.742 12.9186 62.1729 13.8249C62.6186 14.7163 62.8415 15.7638 62.8415 16.9672V24.1434H57.738V17.7027C57.738 16.8707 57.5374 16.2318 57.1362 15.7861C56.7499 15.3403 56.1928 15.1175 55.4648 15.1175C54.9448 15.1175 54.4916 15.2363 54.1053 15.4741C53.7339 15.7118 53.4442 16.0461 53.2362 16.4769C53.043 16.9078 52.9464 17.4278 52.9464 18.037L51.4087 17.2347C51.6019 15.8529 51.9733 14.7015 52.523 13.7803C53.0876 12.8591 53.7785 12.1683 54.5956 11.7077C55.4128 11.2323 56.2968 10.9945 57.2477 10.9945ZM67.1204 10.9945C68.309 10.9945 69.3193 11.2397 70.1513 11.73C70.9982 12.2203 71.6371 12.9186 72.0679 13.8249C72.5137 14.7163 72.7365 15.7638 72.7365 16.9672V24.1434H67.633V17.7027C67.633 16.8707 67.4324 16.2318 67.0313 15.7861C66.645 15.3403 66.0878 15.1175 65.3598 15.1175C64.8398 15.1175 64.3867 15.2363 64.0004 15.4741C63.6289 15.7118 63.3392 16.0461 63.1312 16.4769C62.9381 16.9078 62.8415 17.4278 62.8415 18.037L61.3037 17.2347C61.4969 15.8529 61.8683 14.7015 62.4181 13.7803C62.9826 12.8591 63.6661 12.1683 64.4684 11.7077C65.2855 11.2323 66.1696 10.9945 67.1204 10.9945Z" fill="#F79009"/>
<path d="M86.2773 24.1434L85.6755 19.597L86.2996 17.7695L85.6755 15.9644L86.2773 11.3734H91.5814L90.7345 17.7472L91.5814 24.1434H86.2773ZM87.4139 17.7695C87.2356 19.1216 86.8419 20.3101 86.2327 21.3353C85.6384 22.3456 84.8658 23.1331 83.9149 23.6976C82.9789 24.2474 81.9018 24.5222 80.6834 24.5222C79.4503 24.5222 78.3583 24.2399 77.4074 23.6754C76.4565 23.1108 75.7136 22.3233 75.1788 21.313C74.6588 20.2879 74.3988 19.1067 74.3988 17.7695C74.3988 16.4026 74.6588 15.2141 75.1788 14.2037C75.7136 13.1786 76.4565 12.3911 77.4074 11.8414C78.3583 11.2768 79.4503 10.9945 80.6834 10.9945C81.9018 10.9945 82.9789 11.2694 83.9149 11.8191C84.8658 12.3689 85.6458 13.1563 86.255 14.1815C86.8641 15.1918 87.2504 16.3878 87.4139 17.7695ZM79.5469 17.7695C79.5469 18.3341 79.6583 18.8318 79.8811 19.2627C80.1189 19.6936 80.4457 20.0353 80.8617 20.2879C81.2777 20.5404 81.7532 20.6667 82.2881 20.6667C82.8378 20.6667 83.3652 20.5404 83.8704 20.2879C84.3755 20.0353 84.8212 19.6936 85.2075 19.2627C85.5938 18.8318 85.8761 18.3341 86.0544 17.7695C85.8761 17.2049 85.5938 16.7072 85.2075 16.2764C84.8212 15.8306 84.3755 15.4815 83.8704 15.2289C83.3652 14.9763 82.8378 14.85 82.2881 14.85C81.7532 14.85 81.2777 14.9763 80.8617 15.2289C80.4457 15.4815 80.1189 15.8306 79.8811 16.2764C79.6583 16.7072 79.5469 17.2049 79.5469 17.7695Z" fill="#F79009"/>
<path d="M92.559 15.1175V12.9112L95.0996 11.7523L97.3282 7.91906H100.225V11.3734H105.396V15.1175H100.225V18.3044C100.225 19.1661 100.389 19.7753 100.716 20.1319C101.057 20.4884 101.719 20.6667 102.699 20.6667C103.308 20.6667 103.851 20.6222 104.326 20.533C104.802 20.429 105.232 20.3027 105.619 20.1541V23.9205C105.143 24.0691 104.542 24.2028 103.813 24.3217C103.085 24.4554 102.32 24.5222 101.518 24.5222C100.062 24.5222 98.8585 24.2994 97.9077 23.8536C96.9717 23.4079 96.2659 22.7691 95.7905 21.937C95.3299 21.105 95.0996 20.1244 95.0996 18.9953V15.1175H92.559Z" fill="#F79009"/>
<path d="M108.875 6.98304H113.979V14.85L113.355 16.1426V19.6416L113.979 20.8227V24.1434H108.875V6.98304ZM112.419 17.7695C112.597 16.3878 112.983 15.1918 113.578 14.1815C114.187 13.1563 114.967 12.3689 115.918 11.8191C116.869 11.2694 117.938 10.9945 119.127 10.9945C120.39 10.9945 121.489 11.2768 122.425 11.8414C123.361 12.3911 124.097 13.1786 124.632 14.2037C125.166 15.2141 125.434 16.4026 125.434 17.7695C125.434 19.1067 125.166 20.2879 124.632 21.313C124.097 22.3233 123.361 23.1108 122.425 23.6754C121.489 24.2399 120.39 24.5222 119.127 24.5222C117.923 24.5222 116.846 24.2474 115.895 23.6976C114.959 23.1331 114.194 22.3456 113.6 21.3353C113.006 20.3101 112.612 19.1216 112.419 17.7695ZM120.263 17.7695C120.263 17.2049 120.145 16.7072 119.907 16.2764C119.684 15.8306 119.365 15.4815 118.949 15.2289C118.547 14.9763 118.079 14.85 117.545 14.85C116.995 14.85 116.46 14.9763 115.94 15.2289C115.435 15.4815 114.997 15.8306 114.625 16.2764C114.254 16.7072 113.971 17.2049 113.778 17.7695C113.971 18.3341 114.254 18.8318 114.625 19.2627C114.997 19.6936 115.435 20.0353 115.94 20.2879C116.46 20.5404 116.995 20.6667 117.545 20.6667C118.079 20.6667 118.547 20.5404 118.949 20.2879C119.365 20.0353 119.684 19.6936 119.907 19.2627C120.145 18.8318 120.263 18.3341 120.263 17.7695Z" fill="#444444"/>
<path d="M134.999 24.5222C133.35 24.5222 131.902 24.2399 130.654 23.6754C129.406 23.1108 128.433 22.3233 127.734 21.313C127.036 20.2879 126.687 19.1067 126.687 17.7695C126.687 16.4026 127.036 15.2141 127.734 14.2037C128.433 13.1786 129.406 12.3911 130.654 11.8414C131.902 11.2768 133.358 10.9945 135.022 10.9945C136.671 10.9945 138.12 11.2768 139.368 11.8414C140.616 12.3911 141.581 13.1786 142.265 14.2037C142.963 15.2141 143.312 16.4026 143.312 17.7695C143.312 19.1067 142.963 20.2879 142.265 21.313C141.581 22.3233 140.616 23.1108 139.368 23.6754C138.12 24.2399 136.664 24.5222 134.999 24.5222ZM135.022 20.7782C135.69 20.7782 136.255 20.6593 136.716 20.4216C137.191 20.1839 137.548 19.8421 137.785 19.3964C138.038 18.9358 138.164 18.3935 138.164 17.7695C138.164 17.1307 138.038 16.5884 137.785 16.1426C137.548 15.6821 137.191 15.3329 136.716 15.0952C136.255 14.8575 135.69 14.7386 135.022 14.7386C134.353 14.7386 133.781 14.8575 133.306 15.0952C132.83 15.3329 132.466 15.6821 132.214 16.1426C131.976 16.5884 131.857 17.1232 131.857 17.7472C131.857 18.3861 131.976 18.9358 132.214 19.3964C132.466 19.8421 132.83 20.1839 133.306 20.4216C133.781 20.6593 134.353 20.7782 135.022 20.7782Z" fill="#444444"/>
<path d="M144.38 11.3734H149.595L150.352 15.8975V24.1434H145.249V15.7415L144.38 11.3734ZM156.169 11.1283V15.4741C155.694 15.3849 155.255 15.3255 154.854 15.2958C154.468 15.2512 154.111 15.2289 153.784 15.2289C153.175 15.2289 152.611 15.3478 152.091 15.5855C151.571 15.8083 151.147 16.2021 150.82 16.7667C150.508 17.3164 150.352 18.0815 150.352 19.0621L149.416 17.9032C149.55 16.9821 149.728 16.1129 149.951 15.2958C150.189 14.4638 150.508 13.7283 150.91 13.0894C151.311 12.4357 151.808 11.9231 152.403 11.5517C153.012 11.1803 153.755 10.9945 154.631 10.9945C154.869 10.9945 155.114 11.0094 155.367 11.0391C155.619 11.054 155.887 11.0837 156.169 11.1283Z" fill="#444444"/>
</svg>
