<svg width="99" height="116" viewBox="0 0 99 116" fill="none" xmlns="http://www.w3.org/2000/svg">
<path d="M46.9747 9.65192C54.349 -0.698956 68.6666 -3.10192 78.9537 4.2848C89.2403 11.6714 91.6017 26.0494 84.228 36.4001L83.5172 37.3722C82.7397 38.4082 81.868 39.4686 80.6064 40.8791C87.0718 42.5449 91.4618 46.6137 93.8859 49.8865C96.5291 53.4553 97.6101 56.9368 98.0649 58.6875C98.0882 58.7772 98.6735 60.8497 98.8152 63.4925C98.965 66.2879 98.6116 68.8375 98.0216 71.0436C97.0164 74.8018 95.2905 77.6009 94.4922 78.8489C92.7216 81.6168 90.055 84.9334 86.5307 89.0552C78.2966 98.6853 71.8116 106.682 43.7331 133.596C34.5655 142.383 20.0589 142.056 11.332 132.864C2.60548 123.673 2.96244 109.099 12.1294 100.312C15.1974 97.3709 17.9839 94.6739 20.5274 92.1955C18.8088 91.9818 16.1063 91.4568 13.1679 90.0431C8.18786 87.647 3.06995 82.9047 0.939342 75.6107C-0.75927 69.7951 0.297592 64.994 0.637195 63.5476L0.813736 62.8392C1.73953 59.366 3.23916 56.8072 4.08468 55.472C5.07708 53.9049 6.1599 52.5102 7.08122 51.3853C8.94038 49.1154 11.5756 46.2218 15.1885 42.4317C22.2749 34.998 35.0874 22.0792 41.1939 15.7863C44.4061 12.4759 45.9329 10.8323 46.6757 9.99595C46.8153 9.83871 46.9086 9.73121 46.965 9.66516C46.968 9.66086 46.9714 9.65653 46.9747 9.65192Z" fill="#FDB022"/>
</svg>
