<svg width="28" height="28" viewBox="0 0 28 28" fill="none" xmlns="http://www.w3.org/2000/svg">
<g clip-path="url(#clip0_181_1366)">
<path d="M4.3778 19.6269C4.3778 19.0725 4.58451 18.5667 4.92451 18.1812C4.52377 17.727 3.93775 17.4401 3.28438 17.4401C2.07664 17.4401 1.09753 18.4192 1.09753 19.6269C1.09753 22.7067 3.5942 25.2034 6.67398 25.2034H9.95424C6.87446 25.2034 4.3778 22.7067 4.3778 19.6269Z" fill="#FEDF89"/>
<path d="M15.5853 16.3466C13.7926 16.3466 12.3212 17.8049 12.3052 19.5973C12.3045 19.6726 12.2467 19.7362 12.1789 19.7362H6.6908C6.63006 19.7362 6.56462 19.702 6.56462 19.6269C6.56462 17.8181 5.09309 16.3466 3.28435 16.3466C1.47562 16.3466 0.00408936 17.8181 0.00408936 19.6269C0.00408936 22.2884 1.57124 24.5904 3.83106 25.6596V26.9065C3.83106 27.5104 4.32059 27.9999 4.92448 27.9999C5.52838 27.9999 6.01791 27.5104 6.01791 26.9065V26.2645C6.2338 26.2857 6.4526 26.2968 6.67396 26.2968H12.1957C12.4171 26.2968 12.6359 26.2857 12.8518 26.2645V26.8981C12.8518 27.502 13.3413 27.9916 13.9452 27.9916C14.5491 27.9916 15.0386 27.502 15.0386 26.8981V25.6596C17.2985 24.5904 18.8656 22.2884 18.8656 19.6269C18.8656 17.8181 17.3941 16.3466 15.5853 16.3466ZM12.1957 24.1099H6.67396C4.20201 24.1099 2.19093 22.0988 2.19093 19.6269C2.19093 19.024 2.68144 18.5335 3.28435 18.5335C3.88727 18.5335 4.37777 19.024 4.37777 19.6269C4.37777 20.893 5.41538 21.9231 6.6908 21.9231H12.179C13.4431 21.9231 14.4807 20.8885 14.492 19.6167C14.4974 19.0194 14.9878 18.5335 15.5854 18.5335C16.1883 18.5335 16.6788 19.024 16.6788 19.6269C16.6788 22.0988 14.6677 24.1099 12.1957 24.1099ZM2.70325 13.4886C3.78541 10.7181 6.47966 8.85669 9.40751 8.85669C12.3354 8.85669 15.0296 10.7181 16.1118 13.4886C16.3315 14.0511 16.0536 14.6852 15.4911 14.9049C15.3604 14.956 15.2258 14.9801 15.0935 14.9801C14.6563 14.9801 14.2434 14.7161 14.0748 14.2842C13.3177 12.3459 11.442 11.0435 9.40751 11.0435C7.37298 11.0435 5.49733 12.3459 4.74019 14.2843C4.52047 14.8468 3.88639 15.1245 3.32388 14.9049C2.76142 14.6852 2.48353 14.0511 2.70325 13.4886ZM26.9022 26.8981C26.9022 27.502 26.4127 27.9916 25.8088 27.9916H23.786C21.9773 27.9916 20.5057 26.52 20.5057 24.7113V13.2304C20.5057 12.6265 20.9953 12.137 21.5992 12.137C22.2031 12.137 22.6926 12.6265 22.6926 13.2304V24.7113C22.6926 25.3142 23.1831 25.8047 23.786 25.8047H25.8088C26.4127 25.8047 26.9022 26.2942 26.9022 26.8981ZM24.3327 14.8705V13.2304C24.3327 12.6265 24.8222 12.137 25.4261 12.137C26.03 12.137 26.5196 12.6265 26.5196 13.2304V14.8705C26.5196 15.4744 26.03 15.9639 25.4261 15.9639C24.8222 15.9639 24.3327 15.4744 24.3327 14.8705Z" fill="#F79009"/>
<path d="M25.2611 10.4968H17.9372C17.0998 10.4968 16.3204 10.1213 15.7986 9.46635C15.2772 8.81183 15.0855 7.96869 15.2724 7.15316C15.616 5.65463 16.1777 3.86825 16.5884 2.63356C17.1124 1.05832 18.5799 0 20.2403 0H22.958C24.6184 0 26.0859 1.05832 26.6098 2.6335C27.0205 3.8682 27.5822 5.65463 27.9258 7.15311C28.1128 7.96863 27.921 8.81177 27.3996 9.46629C26.8779 10.1213 26.0985 10.4968 25.2611 10.4968ZM20.2403 2.18684C19.5233 2.18684 18.8897 2.64373 18.6635 3.32373C18.2679 4.5131 17.7283 6.2278 17.404 7.64192C17.3529 7.86476 17.448 8.02691 17.5091 8.10373C17.5705 8.18076 17.7077 8.30995 17.9372 8.30995H25.2612C25.4907 8.30995 25.6279 8.1807 25.6892 8.10373C25.7504 8.02691 25.8454 7.86476 25.7944 7.64192C25.4701 6.22774 24.9305 4.5131 24.5349 3.32367C24.3086 2.64373 23.6749 2.18684 22.958 2.18684H20.2403Z" fill="#6610F2"/>
</g>
<defs>
<clipPath id="clip0_181_1366">
<rect width="28" height="28" fill="white"/>
</clipPath>
</defs>
</svg>
