<svg width="28" height="28" viewBox="0 0 28 28" fill="none" xmlns="http://www.w3.org/2000/svg">
<g clip-path="url(#clip0_181_1378)">
<path d="M6.18355 14.5867C6.19361 14.2445 6.20427 13.9024 6.21258 13.5605C5.27989 13.7069 4.34365 13.8042 3.42736 13.8544C1.58238 13.9555 0.495483 15.9877 1.44589 17.5723C2.44732 19.242 3.70494 20.84 5.1416 22.3111L5.87245 21.3241C5.45527 20.0835 5.15773 18.7329 4.89093 17.5723C4.50732 15.9038 4.6875 14.8178 6.18355 14.5867Z" fill="#FEDF89"/>
<path d="M21.2186 7.92921C20.9405 7.92921 20.6623 7.82378 20.449 7.61254C20.0199 7.18748 20.0166 6.49501 20.4416 6.06585L26.1287 0.324036C26.5538 -0.105069 27.2463 -0.10846 27.6754 0.316653C28.1046 0.741712 28.1079 1.43418 27.6829 1.86334L21.9957 7.60515C21.7819 7.82105 21.5003 7.92921 21.2186 7.92921Z" fill="#6610F2"/>
<path d="M19.4137 8.60028L19.3984 8.58491C18.7322 7.91908 17.8466 7.55237 16.9047 7.55237C15.9624 7.55237 15.0765 7.9193 14.4103 8.58562L12.9196 10.0765C12.0032 10.2082 9.08552 10.4493 6.37877 8.75241C5.86693 8.43163 5.19196 8.58644 4.87124 9.09818C4.55041 9.60996 4.70522 10.2849 5.21695 10.6057C6.30265 11.2863 7.40956 11.7149 8.45009 11.9775C6.87524 12.394 5.14772 12.6648 3.36754 12.7623C2.11221 12.8311 1.01017 13.5366 0.41958 14.6495C-0.168983 15.7585 -0.135899 17.0614 0.50795 18.1349C1.53628 19.8494 2.83202 21.5116 4.35918 23.0752C4.57348 23.2946 4.85746 23.4048 5.14176 23.4048C5.41731 23.4048 5.69308 23.3012 5.90581 23.0935C6.33792 22.6715 6.34618 21.979 5.92412 21.5469C4.51579 20.1049 3.32467 18.5784 2.38383 17.0098C2.1342 16.5935 2.12249 16.107 2.35173 15.6749C2.5831 15.2389 2.99706 14.9734 3.4873 14.9465C5.70227 14.8251 9.78569 14.3367 13.267 12.4608L16.1313 15.3253C16.3364 15.5304 16.6146 15.6457 16.9047 15.6457C17.1948 15.6457 17.4729 15.5304 17.6781 15.3253L19.4145 13.5888C20.7894 12.2136 20.7894 9.97613 19.4137 8.60028ZM17.8677 12.0421L16.9046 13.0052L14.9944 11.0949L15.957 10.1322C16.2101 9.87912 16.5467 9.73973 16.9047 9.73973C17.2626 9.73973 17.5992 9.87912 17.8523 10.1322C17.8525 10.1325 17.8528 10.1327 17.853 10.133L17.8677 10.1476C18.3899 10.6699 18.3899 11.5198 17.8677 12.0421ZM16.3572 18.4799C15.7936 20.292 15.4088 22.4843 15.2737 24.6527C15.1959 25.9017 14.4916 26.9966 13.3896 27.5817C12.8638 27.8609 12.2925 28 11.7217 28C11.0973 28 10.4736 27.8336 9.91081 27.502C9.57204 27.3024 9.22835 27.0873 8.8892 26.8628C7.8041 26.1442 7.32649 24.7786 7.7276 23.5419C8.15556 22.2222 8.94317 20.2504 10.2649 18.3507C10.61 17.8549 11.2915 17.7326 11.7873 18.0777C12.2832 18.4227 12.4054 19.1043 12.0604 19.6001C10.8917 21.2797 10.1906 23.0377 9.80822 24.2166C9.70902 24.5226 9.82769 24.8608 10.0969 25.0392C10.4042 25.2427 10.7152 25.4373 11.021 25.6174C11.4439 25.8666 11.9333 25.8784 12.3638 25.6499C12.7951 25.4209 13.0599 25.0079 13.0906 24.5168C13.2361 22.1791 13.6545 19.8045 14.2684 17.8304C14.4478 17.2536 15.0608 16.9315 15.6375 17.1109C16.2144 17.2901 16.5365 17.9031 16.3572 18.4799Z" fill="#F79009"/>
</g>
<defs>
<clipPath id="clip0_181_1378">
<rect width="28" height="28" fill="white"/>
</clipPath>
</defs>
</svg>
