<svg width="28" height="28" viewBox="0 0 28 28" fill="none" xmlns="http://www.w3.org/2000/svg">
<g clip-path="url(#clip0_181_1339)">
<path d="M10.9882 2.07831C9.26097 2.07831 7.6954 3.09455 6.99224 4.67215L4.14701 11.0557C2.44134 11.1728 1.09375 12.5927 1.09375 14.3281V16.8437C1.09375 18.3538 2.31796 19.578 3.82808 19.578H4.57756C4.5816 19.3676 4.58696 19.1572 4.59369 18.9468C4.41568 18.584 4.31533 18.1761 4.31533 17.7447L4.26557 15.8046C4.26557 14.3699 4.55749 13.8177 5.62245 13.6032C6.12868 13.5012 6.55251 13.1563 6.75993 12.6833L10.2734 4.67215C10.9766 3.09449 12.5422 2.07831 14.2694 2.07831H10.9882Z" fill="#FEDF89"/>
<path d="M9.67941 22.8592C7.87016 22.8592 6.39822 21.3872 6.39822 19.578C6.46827 15.8785 11.5065 15.0599 12.7732 18.4842H15.1482C16.5978 18.538 16.5967 20.6184 15.1482 20.6717H12.7732C12.3218 21.9449 11.1054 22.8592 9.67941 22.8592ZM9.67941 18.4842C9.07632 18.4842 8.58568 18.9749 8.58568 19.578C8.64069 21.027 10.7183 21.0266 10.7731 19.578C10.7731 18.9749 10.2825 18.4842 9.67941 18.4842ZM3.82806 20.6717C1.71727 20.6717 0 18.9544 0 16.8436V14.3281C0 12.2715 1.44274 10.5159 3.39067 10.0658L5.99315 4.22686C6.87104 2.25722 8.83166 0.984497 10.9881 0.984497H15.9698C18.0348 0.984497 19.901 2.12701 20.8402 3.96612L22.2471 6.72133C22.5218 7.25929 22.3084 7.91809 21.7705 8.19284C21.2325 8.46758 20.5737 8.2542 20.299 7.71619L18.8921 4.96097C18.3286 3.85751 17.2088 3.17201 15.9698 3.17201H14.2732V7.21882C14.2194 8.66845 12.139 8.66735 12.0857 7.21882V3.17201H10.9882C9.69428 3.17201 8.51792 3.9356 7.99118 5.11743L5.14595 11.5009C4.98118 11.8706 4.62572 12.1191 4.22196 12.1468C3.08109 12.2252 2.18746 13.1833 2.18746 14.3281V16.8436C2.18746 17.7483 2.92343 18.4842 3.82806 18.4842C5.27725 18.5377 5.27692 20.6184 3.82806 20.6717ZM26.9058 15.4218C26.3017 15.4218 25.812 14.9321 25.812 14.3281C25.812 13.1219 24.8308 12.1406 23.6246 12.1406H8.69516C7.24553 12.0868 7.24662 10.0064 8.69516 9.95314H23.6246C26.0369 9.95314 27.9995 11.9157 27.9995 14.3281C27.9995 14.9321 27.5098 15.4218 26.9058 15.4218Z" fill="#F79009"/>
<path d="M16.8435 27.0154C15.8831 27.0212 15.3805 25.8337 16.0701 25.1483L19.0456 22.1728C16.8489 18.9934 19.2337 14.5098 23.1325 14.5469C23.7365 14.5468 24.2262 15.0365 24.2262 15.6405C24.2262 16.2446 23.7365 16.7343 23.1325 16.7343C21.6248 16.7343 20.3981 17.9486 20.3981 19.4412C20.3981 20.9339 21.6125 22.1482 23.1051 22.1482C24.5977 22.1482 25.8121 20.9216 25.8121 19.4139C25.8121 18.8098 26.3018 18.3202 26.9058 18.3202C27.5099 18.3202 27.9996 18.8098 27.9996 19.4139C28.0512 23.1541 23.8185 25.5899 20.6422 23.6697L17.6169 26.695C17.4033 26.9086 17.1234 27.0154 16.8435 27.0154Z" fill="#6610F2"/>
</g>
<defs>
<clipPath id="clip0_181_1339">
<rect width="28" height="28" fill="white"/>
</clipPath>
</defs>
</svg>
