<svg width="28" height="27" viewBox="0 0 28 27" fill="none" xmlns="http://www.w3.org/2000/svg">
<path d="M4.48437 15.5335V6.56026C4.48437 3.54118 6.92584 1.09375 9.93759 1.09375H6.61719C3.59685 1.09375 1.14844 3.54216 1.14844 6.5625V15.5312C1.14844 18.5515 3.59685 21 6.61719 21H9.93759C6.92584 21 4.48437 18.5526 4.48437 15.5335Z" fill="#FEDF89"/>
<path d="M19.25 26.4688H8.75C7.30034 26.415 7.30144 24.3345 8.75 24.2812H19.25C20.6997 24.335 20.6986 26.4155 19.25 26.4688ZM21.4375 22.0938H6.56135C2.94345 22.0938 0 19.1504 0 15.5324V6.5625C0 2.94394 2.94394 0 6.5625 0H21.4375C25.0561 0 28 2.94394 28 6.5625V15.5312C28 19.1498 25.0561 22.0938 21.4375 22.0938ZM6.5625 2.1875C4.15013 2.1875 2.1875 4.15013 2.1875 6.5625V15.5324C2.1875 17.9441 4.14963 19.9062 6.56135 19.9062H21.4375C23.8499 19.9062 25.8125 17.9436 25.8125 15.5312V6.5625C25.8125 4.15013 23.8499 2.1875 21.4375 2.1875H6.5625Z" fill="#F79009"/>
<path d="M12.7974 16.5706C12.6974 16.5706 12.5957 16.5567 12.4947 16.5277C11.9142 16.3608 11.5788 15.7549 11.7458 15.1743L14.2614 6.42434C14.4283 5.84383 15.0343 5.50876 15.6148 5.67539C16.1953 5.84235 16.5306 6.44824 16.3637 7.0288L13.8481 15.7788C13.7102 16.2583 13.2727 16.5706 12.7974 16.5706ZM19.3595 15.4765C19.0766 15.4765 18.7939 15.3675 18.5799 15.15C18.1562 14.7194 18.1617 14.0269 18.5922 13.6032L20.7336 11.4958C20.9464 11.266 20.9464 10.9642 20.7319 10.7344L18.587 8.59461C18.1593 8.16794 18.1586 7.47543 18.5852 7.04783C19.0119 6.62012 19.7044 6.61941 20.132 7.04597L22.2766 9.18556C23.3384 10.2012 23.3384 12.031 22.2764 13.0467C22.2747 13.0484 22.273 13.0501 22.2713 13.0517L20.1267 15.1624C19.9136 15.372 19.6364 15.4765 19.3595 15.4765ZM8.74997 15.4765C8.47298 15.4765 8.19588 15.372 7.98281 15.1624L5.83813 13.0516C5.83644 13.05 5.83474 13.0483 5.8331 13.0466C4.77102 12.0307 4.77107 10.2012 5.8331 9.18535L7.97751 7.04597C8.40517 6.61935 9.09767 6.62023 9.52429 7.04783C9.95091 7.47543 9.95014 8.16794 9.52249 8.59461L7.37781 10.7342C7.16321 10.9639 7.16278 11.2656 7.37578 11.4958L9.51718 13.6032C9.94774 14.0269 9.95326 14.7194 9.52954 15.15C9.31549 15.3675 9.03276 15.4765 8.74997 15.4765Z" fill="#6610F2"/>
</svg>
