<svg width="28" height="28" viewBox="0 0 28 28" fill="none" xmlns="http://www.w3.org/2000/svg">
<g clip-path="url(#clip0_181_1345)">
<path d="M4.375 3.28125C4.375 2.07309 5.35434 1.09375 6.5625 1.09375H3.28125C2.07309 1.09375 1.09375 2.07309 1.09375 3.28125V7.65625C1.09375 6.45312 2.07812 5.46875 3.28125 5.46875H4.375V3.28125Z" fill="#FEDF89"/>
<path d="M7.65625 13.125C7.05217 13.125 6.5625 13.6147 6.5625 14.2188V24.7188C6.5625 26.528 8.03447 28 9.84375 28C11.653 28 13.125 26.528 13.125 24.7188V14.2188C13.125 13.6147 12.6353 13.125 12.0312 13.125C11.4272 13.125 10.9375 13.6147 10.9375 14.2188V24.7188C10.9375 25.3218 10.4468 25.8125 9.84375 25.8125C9.24066 25.8125 8.75 25.3218 8.75 24.7188V14.2188C8.75 13.6147 8.26033 13.125 7.65625 13.125Z" fill="#6610F2"/>
<path d="M26.9063 8.75C27.2278 8.75 27.533 8.60858 27.7408 8.3632C27.9486 8.11792 28.038 7.79357 27.9851 7.47644L26.8914 0.913938C26.8035 0.386531 26.3472 0 25.8125 0H23.625C23.0903 0 22.634 0.386531 22.5461 0.913938L21.4524 7.47644C21.3996 7.79357 21.4889 8.11792 21.6967 8.3632C21.9045 8.60852 22.2097 8.75 22.5313 8.75H23.625V13.125H22.5313C21.9272 13.125 21.4375 13.6147 21.4375 14.2188V24.7188C21.4375 26.528 22.9095 28 24.7188 28C26.528 28 28 26.528 28 24.7188V14.2188C28 13.6147 27.5103 13.125 26.9063 13.125H25.8125V8.75H26.9063ZM25.8125 24.7188C25.8125 25.3218 25.3219 25.8125 24.7188 25.8125C24.1157 25.8125 23.625 25.3218 23.625 24.7188V15.3125H25.8125V24.7188ZM24.5515 2.1875H24.8859L25.6151 6.5625H23.8224L24.5515 2.1875Z" fill="#F79009"/>
<path d="M1.09375 8.75C1.69783 8.75 2.1875 8.26033 2.1875 7.65625C2.1875 7.05316 2.67816 6.5625 3.28125 6.5625H4.375V7.65625C4.375 9.46553 5.84697 10.9375 7.65625 10.9375H12.0312C13.4572 10.9375 14.6736 10.0232 15.1251 8.75H17.5V9.84375C17.5 10.4478 17.9897 10.9375 18.5938 10.9375C19.1978 10.9375 19.6875 10.4478 19.6875 9.84375V1.09375C19.6875 0.489672 19.1978 0 18.5938 0C17.9897 0 17.5 0.489672 17.5 1.09375V2.1875H15.1251C14.6736 0.91432 13.4572 0 12.0312 0H3.28125C1.47197 0 0 1.47197 0 3.28125V7.65625C0 8.26033 0.489672 8.75 1.09375 8.75ZM2.1875 3.28125C2.1875 2.67816 2.67816 2.1875 3.28125 2.1875H12.0312C12.6343 2.1875 13.125 2.67816 13.125 3.28125C13.125 3.88533 13.6147 4.375 14.2188 4.375H17.5V6.5625H14.2188C13.6147 6.5625 13.125 7.05217 13.125 7.65625C13.125 8.25934 12.6343 8.75 12.0312 8.75H7.65625C7.05316 8.75 6.5625 8.25934 6.5625 7.65625V5.46875C6.5625 4.86467 6.07283 4.375 5.46875 4.375H3.28125C2.89795 4.375 2.52973 4.44106 2.1875 4.56241V3.28125Z" fill="#F79009"/>
</g>
<defs>
<clipPath id="clip0_181_1345">
<rect width="28" height="28" fill="white"/>
</clipPath>
</defs>
</svg>
