<svg width="28" height="28" viewBox="0 0 28 28" fill="none" xmlns="http://www.w3.org/2000/svg">
<path d="M1.09375 5.46875H4.375V14.2188H1.09375V5.46875Z" fill="#FEDF89"/>
<path d="M25.6659 19.7968C25.4705 19.4584 25.1095 19.25 24.7188 19.25C24.328 19.25 23.967 19.4584 23.7716 19.7968L21.8759 23.0795C21.5891 23.5761 21.4375 24.143 21.4375 24.7188C21.4375 26.528 22.9095 28 24.7188 28C26.528 28 28 26.528 28 24.7188C28 24.143 27.8484 23.5761 27.5616 23.0794L25.6659 19.7968ZM24.7188 25.8125C24.1157 25.8125 23.625 25.3218 23.625 24.7188C23.625 24.5238 23.6739 24.3403 23.7703 24.1734L24.7188 22.5309L25.6672 24.1734C25.7636 24.3403 25.8125 24.5238 25.8125 24.7188C25.8125 25.3218 25.3218 25.8125 24.7188 25.8125Z" fill="#6610F2"/>
<path d="M20.3438 6.5625C19.9361 6.5625 19.5647 6.33801 19.3745 5.97658C18.927 5.12613 18.0669 4.55339 17.0625 4.41038V2.1875H20.3438C20.9478 2.1875 21.4375 1.69783 21.4375 1.09375C21.4375 0.489672 20.9478 0 20.3438 0H11.5938C10.9897 0 10.5 0.489672 10.5 1.09375C10.5 1.69783 10.9897 2.1875 11.5938 2.1875H14.875V4.41038C13.8706 4.55339 13.0104 5.12608 12.5629 5.97658C12.3728 6.33801 12.0014 6.5625 11.5938 6.5625C10.9897 6.5625 10.5 7.05217 10.5 7.65625C10.5 8.26033 10.9897 8.75 11.5938 8.75C12.8162 8.75 13.9293 8.07762 14.4989 6.99519C14.635 6.73641 14.9859 6.5625 15.3719 6.5625H16.5656C16.9516 6.5625 17.3025 6.73641 17.4386 6.99519C18.0082 8.07762 19.1213 8.75 20.3438 8.75C23.3592 8.75 25.8125 11.2033 25.8125 14.2188V15.3125H23.625V14.2188C23.625 12.4095 22.153 10.9375 20.3438 10.9375H8.53125V7.65625C8.53125 5.84697 7.05928 4.375 5.25 4.375H2.1875V3.28125C2.1875 2.67717 1.69783 2.1875 1.09375 2.1875C0.489672 2.1875 0 2.67717 0 3.28125V16.4062C0 17.0103 0.489672 17.5 1.09375 17.5C1.69783 17.5 2.1875 17.0103 2.1875 16.4062V15.3125H5.25C6.67587 15.3125 7.89157 14.398 8.34312 13.125H20.3438C20.9468 13.125 21.4375 13.6157 21.4375 14.2188V16.4062C21.4375 17.0103 21.9272 17.5 22.5312 17.5H26.9062C27.5103 17.5 28 17.0103 28 16.4062V14.2188C28 9.99709 24.5654 6.5625 20.3438 6.5625ZM5.25 13.125H2.1875V6.5625H5.25C5.85309 6.5625 6.34375 7.05316 6.34375 7.65625V12.0312C6.34375 12.6343 5.85309 13.125 5.25 13.125Z" fill="#F79009"/>
</svg>
