<svg width="28" height="22" viewBox="0 0 28 22" fill="none" xmlns="http://www.w3.org/2000/svg">
<path d="M25.9845 4.62837C25.9845 4.62837 16.1051 0.420164 16.1025 0.41907C15.4352 0.140984 14.7279 0 14 0C13.2721 0 12.5648 0.140984 11.8975 0.41907C11.8949 0.420164 2.01545 4.62837 2.01545 4.62837C0.791 5.14062 0 6.32866 0 7.65625C0 8.98384 0.791 10.1719 2.01545 10.6841L4.375 11.6892V18.5938C4.375 20.403 5.84697 21.875 7.65625 21.875H20.3438C22.153 21.875 23.625 20.403 23.625 18.5938V15.6772C23.625 15.0731 23.1353 14.5835 22.5312 14.5835C21.9272 14.5835 21.4375 15.0731 21.4375 15.6772V18.5938C21.4375 19.1968 20.9468 19.6875 20.3438 19.6875H7.65625C7.05316 19.6875 6.5625 19.1968 6.5625 18.5938V12.621C6.5625 12.621 11.8949 14.8924 11.8975 14.8935C12.5648 15.1715 13.2721 15.3125 14 15.3125C14.7278 15.3125 15.4352 15.1715 16.1024 14.8935C16.105 14.8924 25.9845 10.6841 25.9845 10.6841C27.209 10.1719 28 8.98384 28 7.65625C28 6.32866 27.209 5.14062 25.9845 4.62837ZM25.1389 8.66671C25.1362 8.6678 15.2576 12.8756 15.2576 12.8756C14.8594 13.0411 14.4362 13.125 13.9999 13.125C13.5636 13.125 13.1405 13.0411 12.7424 12.8757C11.7612 12.4578 2.86371 8.6678 2.86109 8.66671C2.45191 8.49614 2.1875 8.09955 2.1875 7.65625C2.1875 7.21295 2.45191 6.81636 2.86114 6.64579C2.86377 6.64469 12.7424 2.43682 12.7424 2.43682C13.1406 2.27139 13.5637 2.1875 14 2.1875C14.4363 2.1875 14.8594 2.27139 15.2576 2.43682C15.2576 2.43682 25.1362 6.64469 25.1389 6.64579C25.5481 6.81636 25.8125 7.21295 25.8125 7.65625C25.8125 8.09955 25.5481 8.49614 25.1389 8.66671Z" fill="#F79009"/>
</svg>
