<svg width="28" height="28" viewBox="0 0 28 28" fill="none" xmlns="http://www.w3.org/2000/svg">
<g clip-path="url(#clip0_181_1360)">
<path d="M12.1802 18.8482L11.2111 24.3885L9.93524 26.3973C9.19552 27.4288 7.56595 26.7594 7.7694 25.5076L9.24052 16.4604H10.1176C11.3896 16.4604 12.3651 17.5896 12.1802 18.8482ZM6.07679 17.1953C4.96959 16.5122 4.53382 14.9848 5.39503 13.7838L10.8831 5.03305L11.3389 2.49136C11.5411 1.23988 9.91228 0.571515 9.17294 1.6026L1.55123 13.7838C0.406638 15.3799 1.55216 17.5539 3.52138 17.5539H5.98958C6.01604 17.4338 6.04486 17.3142 6.07679 17.1953Z" fill="#FEDF89"/>
<path d="M8.97805 28C8.67963 28 8.3753 27.9409 8.07912 27.8186C7.07406 27.4036 6.51581 26.4044 6.69007 25.3322L7.79048 18.6475H3.52136C2.18895 18.6475 0.987713 17.9199 0.386438 16.7488C-0.20166 15.6035 -0.103461 14.2385 0.640792 13.1772L8.24588 1.02256C8.25807 1.00309 8.27087 0.984009 8.28426 0.965365C8.91845 0.0808662 10.0212 -0.234343 11.028 0.180979C12.0329 0.59537 12.5917 1.59398 12.4184 2.6658L11.2986 9.40202H15.5306C16.8696 9.40202 18.0733 10.126 18.6717 11.2916C19.2608 12.4391 19.1631 13.7587 18.412 14.8294L10.864 26.9745C10.8513 26.995 10.8379 27.015 10.8239 27.0346C10.376 27.6592 9.69442 27.9999 8.97805 28ZM10.0767 2.2198C10.0767 2.2198 2.45326 14.4024 2.43986 14.421C2.02421 15.0006 2.22597 15.5434 2.33198 15.7499C2.56042 16.1948 3.00505 16.4604 3.5213 16.4604H9.07871C9.39977 16.4604 9.70459 16.6015 9.91236 16.8463C10.1202 17.0911 10.2099 17.4147 10.1577 17.7316L8.84841 25.6852C8.84136 25.7287 8.83551 25.7647 8.91386 25.7971C8.97958 25.8242 9.0084 25.8075 9.03081 25.7809L16.5719 13.6469C16.5846 13.6265 16.598 13.6065 16.612 13.5868C17.022 13.015 16.8284 12.4898 16.7261 12.2905C16.5005 11.8513 16.0536 11.5891 15.5305 11.5891H10.0082C9.68682 11.5891 9.38173 11.4477 9.17396 11.2026C8.96619 10.9574 8.87674 10.6333 8.92944 10.3162L10.2601 2.31199C10.2667 2.2712 10.2726 2.23511 10.1942 2.2028C10.1278 2.17546 10.0991 2.19279 10.0767 2.2198Z" fill="#F79009"/>
<path d="M21.3253 17.39C21.1037 17.39 20.8801 17.3229 20.6866 17.1834C20.1967 16.8302 20.086 16.1467 20.4392 15.6569L25.7439 8.30011C25.7703 8.26326 25.8548 8.14565 25.7793 7.99857C25.7521 7.94531 25.6656 7.82158 25.4525 7.82158H21.4902C21.1703 7.82158 20.8665 7.6815 20.6587 7.4383C20.451 7.1951 20.3602 6.87311 20.4101 6.55719L20.9207 3.32921L18.28 7.03468C17.9295 7.5266 17.2466 7.64104 16.7548 7.29056C16.263 6.94009 16.1484 6.25724 16.4989 5.76537L20.0631 0.764184C20.5585 0.074114 21.4494 -0.179967 22.2318 0.142952C23.0123 0.465268 23.4634 1.27185 23.3287 2.10457L22.7703 5.63458H25.4525C26.4221 5.63458 27.2929 6.15784 27.7252 7.00023C28.1479 7.8241 28.069 8.81166 27.5191 9.57751L22.2131 16.9361C21.9995 17.2324 21.6648 17.39 21.3253 17.39Z" fill="#6610F2"/>
</g>
<defs>
<clipPath id="clip0_181_1360">
<rect width="28" height="28" fill="white"/>
</clipPath>
</defs>
</svg>
