<svg width="28" height="28" viewBox="0 0 28 28" fill="none" xmlns="http://www.w3.org/2000/svg">
<path d="M10.7188 24.7188C10.7188 23.5106 11.6981 22.5312 12.9062 22.5312H9.625C8.4169 22.5312 7.4375 23.5106 7.4375 24.7188C7.4375 25.9269 8.4169 26.9062 9.625 26.9062H12.9062C11.6981 26.9062 10.7188 25.9269 10.7188 24.7188Z" fill="#FEDF89"/>
<path d="M14 15.3125C13.3959 15.3125 12.9062 14.8228 12.9062 14.2188V9.84375C12.9062 9.23967 13.3959 8.75 14 8.75C14.6041 8.75 15.0938 9.23967 15.0938 9.84375V14.2188C15.0938 14.8228 14.6041 15.3125 14 15.3125Z" fill="#6610F2"/>
<path d="M18.375 21.4375H9.625C7.82709 21.4368 6.34337 22.8933 6.34375 24.7188C6.34309 26.5392 7.82245 28.0003 9.625 28H18.375C20.1986 28.0007 21.6566 26.5184 21.6562 24.7188C21.6569 22.894 20.1735 21.4371 18.375 21.4375ZM18.375 25.8125H9.625C9.01502 25.8118 8.53158 25.3191 8.53125 24.7188C8.53191 24.1091 9.02459 23.6253 9.625 23.625H18.375C18.9778 23.6256 19.4684 24.1111 19.4688 24.7188C19.4681 25.3215 18.9827 25.8122 18.375 25.8125Z" fill="#F79009"/>
<path d="M24.7188 2.17827e-07C23.3196 -0.00049197 22.0848 0.88561 21.6246 2.1875H6.37476C5.91429 0.884625 4.68098 -0.00027322 3.28125 2.17827e-07C1.4577 -0.000656032 -0.000327907 1.48159 2.18253e-07 3.28125C-0.000656032 5.10163 1.4787 6.56283 3.28125 6.5625C4.67491 6.56299 5.91341 5.68214 6.37541 4.375H11.2655L6.99896 10.0638C6.57256 10.6322 6.34359 11.3203 6.34375 12.0312C6.3432 12.9791 6.75002 13.5939 6.78218 13.6705C6.80586 13.7115 8.50757 16.6584 8.53125 16.6994V18.1562C8.53125 18.7603 9.02092 19.25 9.625 19.25C10.2291 19.25 10.7188 18.7603 10.7188 18.1562V16.4062C10.7188 16.2151 10.6677 16.0248 10.5722 15.8593C8.31704 11.9541 8.73518 12.6784 8.67661 12.5767C8.58397 12.4154 8.53163 12.2336 8.53131 12.0312C8.53147 11.7876 8.60956 11.5622 8.74891 11.3763L13.9995 4.3756L13.9993 4.37577L14 4.37506L14.0007 4.37577L14.0006 4.3756L19.2511 11.3762C19.3905 11.562 19.4685 11.7875 19.4687 12.0312C19.4684 12.2336 19.416 12.4154 19.3234 12.5766L17.4278 15.8592C17.3322 16.0247 17.2812 16.2151 17.2812 16.4062V18.1562C17.2812 18.7603 17.7709 19.2499 18.375 19.2499C18.9791 19.2499 19.4688 18.7603 19.4688 18.1562V16.6993L21.2178 13.6705C21.4964 13.1889 21.6566 12.6245 21.6562 12.0312C21.6564 11.3207 21.4278 10.6327 21.0012 10.0639C20.2149 9.01556 17.2631 5.07976 16.7345 4.37495H21.6252C22.0914 5.69395 23.3356 6.56272 24.7188 6.56245C26.5247 6.5631 28.0003 5.09813 28 3.2812C28.0007 1.47306 26.5334 -0.000382595 24.7188 2.17827e-07ZM3.28125 4.375C2.6728 4.37434 2.18783 3.88314 2.1875 3.28125C2.18816 2.67159 2.68084 2.18783 3.28125 2.1875C3.89091 2.18816 4.37467 2.68084 4.375 3.28125C4.3744 3.89091 3.88166 4.37467 3.28125 4.375ZM24.7188 4.375C24.1148 4.3744 23.6254 3.8873 23.625 3.28141C23.625 3.28136 23.625 3.2813 23.625 3.28125C23.625 3.2812 23.625 3.28114 23.625 3.28114C23.6257 2.67903 24.1112 2.18788 24.7188 2.1875C25.3218 2.1881 25.8122 2.6746 25.8125 3.28125C25.8119 3.88434 25.3254 4.37467 24.7188 4.375Z" fill="#F79009"/>
</svg>
