<svg width="28" height="28" viewBox="0 0 28 28" fill="none" xmlns="http://www.w3.org/2000/svg">
<g clip-path="url(#clip0_181_1384)">
<path d="M4.375 21.4375V6.5625C4.375 3.54216 6.82341 1.09375 9.84375 1.09375H6.5625C3.54216 1.09375 1.09375 3.54216 1.09375 6.5625V21.4375C1.09375 24.4578 3.54216 26.9062 6.5625 26.9062H9.40942C6.5922 26.6849 4.375 24.3116 4.375 21.4375Z" fill="#FEDF89"/>
<path d="M21.4375 28H6.5625C2.94394 28 0 25.0561 0 21.4375V6.5625C0 2.94394 2.94394 0 6.5625 0H21.4375C25.0561 0 28 2.94394 28 6.5625V21.4375C28 25.0561 25.0561 28 21.4375 28ZM6.5625 2.1875C4.15013 2.1875 2.1875 4.15013 2.1875 6.5625V21.4375C2.1875 23.8499 4.15013 25.8125 6.5625 25.8125H21.4375C23.8499 25.8125 25.8125 23.8499 25.8125 21.4375V6.5625C25.8125 4.15013 23.8499 2.1875 21.4375 2.1875H6.5625Z" fill="#F79009"/>
<path d="M18.9766 12.9053H15.1484V9.02344C15.1484 8.41936 14.6588 7.92969 14.0547 7.92969C13.4506 7.92969 12.9609 8.41936 12.9609 9.02344V12.9053H9.13281C8.52873 12.9053 8.03906 13.3949 8.03906 13.999C8.03906 14.6031 8.52873 15.0928 9.13281 15.0928H12.9609V18.9219C12.9609 19.526 13.4506 20.0156 14.0547 20.0156C14.6588 20.0156 15.1484 19.526 15.1484 18.9219V15.0928H18.9766C20.4257 15.0393 20.4256 12.9587 18.9766 12.9053Z" fill="#6610F2"/>
</g>
<defs>
<clipPath id="clip0_181_1384">
<rect width="28" height="28" fill="white"/>
</clipPath>
</defs>
</svg>
