<svg width="28" height="28" viewBox="0 0 28 28" fill="none" xmlns="http://www.w3.org/2000/svg">
<g clip-path="url(#clip0_181_1411)">
<path d="M8.75 8.96875C8.75 6.12965 11.0515 3.82812 13.8906 3.82812H10.6094C7.77027 3.82812 5.46875 6.12965 5.46875 8.96875C5.46875 11.8079 7.77027 14.1094 10.6094 14.1094H13.8906C11.0515 14.1094 8.75 11.8079 8.75 8.96875Z" fill="#FEDF89"/>
<path d="M26.9062 2.73438H10.6094C7.17172 2.73438 4.375 5.53109 4.375 8.96875C4.375 12.4064 7.17172 15.2031 10.6094 15.2031H11.8125V18.0469C11.8125 20.4592 9.84987 22.4219 7.4375 22.4219H5.46875C4.86467 22.4219 4.375 22.9115 4.375 23.5156C4.375 24.1197 4.86467 24.6094 5.46875 24.6094H7.4375C11.0561 24.6094 14 21.6654 14 18.0469V15.2031H21.5469C22.151 15.2031 22.6406 14.7135 22.6406 14.1094V11.7031C22.6406 10.8286 23.3521 10.1172 24.2266 10.1172C26.3073 10.1172 28 8.42445 28 6.34375V3.82812C28 3.22405 27.5103 2.73438 26.9062 2.73438ZM25.8125 6.34375C25.8125 7.21826 25.1011 7.92969 24.2266 7.92969C22.1459 7.92969 20.4531 9.62243 20.4531 11.7031V13.0156H10.6094C8.37791 13.0156 6.5625 11.2002 6.5625 8.96875C6.5625 6.73728 8.37791 4.92188 10.6094 4.92188H25.8125V6.34375ZM13.3984 9.02344C13.3984 8.41936 13.8881 7.92969 14.4922 7.92969H18.1562C18.7603 7.92969 19.25 8.41936 19.25 9.02344C19.25 9.62752 18.7603 10.1172 18.1562 10.1172H14.4922C13.8881 10.1172 13.3984 9.62752 13.3984 9.02344ZM2.1875 1.09375V26.9062C2.1875 27.5103 1.69783 28 1.09375 28C0.489672 28 0 27.5103 0 26.9062V1.09375C0 0.489672 0.489672 0 1.09375 0C1.69783 0 2.1875 0.489672 2.1875 1.09375Z" fill="#F79009"/>
<path d="M11.4844 9.02344C11.4844 9.77851 10.8723 10.3906 10.1172 10.3906C9.36212 10.3906 8.75 9.77851 8.75 9.02344C8.75 8.26837 9.36212 7.65625 10.1172 7.65625C10.8723 7.65625 11.4844 8.26837 11.4844 9.02344Z" fill="#6610F2"/>
</g>
<defs>
<clipPath id="clip0_181_1411">
<rect width="28" height="28" fill="white"/>
</clipPath>
</defs>
</svg>
