<svg width="28" height="28" viewBox="0 0 28 28" fill="none" xmlns="http://www.w3.org/2000/svg">
<g clip-path="url(#clip0_181_1308)">
<path d="M4.88672 21.7552C5.70262 20.9393 6.75843 20.5223 7.82595 20.4909C8.85306 20.4607 9.80305 19.9325 10.5297 19.2058L15.1391 14.6102C16.0832 13.6661 16.6037 12.3342 16.3853 11.0171C15.9872 8.61767 16.954 6.04042 19.2618 4.48496C21.3099 3.10462 24.0618 3.07958 26.183 4.32123C25.7159 3.51441 25.0711 2.79875 24.2066 2.21599C22.0464 0.759634 19.102 0.708609 16.9416 2.16469C14.6338 3.72014 13.667 6.2974 14.065 8.69686C14.2835 10.0139 13.7629 11.3459 12.8189 12.2899L8.20943 16.8855C7.48284 17.6121 6.53284 18.1404 5.50568 18.1706C4.43811 18.202 3.38234 18.619 2.56644 19.4349C0.639056 21.3623 0.88592 24.6407 3.30709 26.222C3.51327 26.3567 3.73066 26.4714 3.9557 26.5667C3.2757 24.9722 3.58584 23.0561 4.88672 21.7552Z" fill="#FEDF89"/>
<path d="M5.66641 28C4.62755 28 3.5877 27.7117 2.70897 27.1378C1.2986 26.2167 0.391648 24.7434 0.220637 23.0958C0.0495708 21.4481 0.622707 19.8318 1.79299 18.6615C2.77372 17.6809 4.08077 17.1183 5.47358 17.0773C6.13619 17.0579 6.83309 16.7151 7.43603 16.1122L12.0466 11.5154C12.7859 10.7761 13.1375 9.78894 12.986 8.87591C12.7512 7.46063 12.9223 6.01286 13.4809 4.68912C14.0636 3.3079 15.0489 2.12133 16.3303 1.25774C18.8461 -0.437934 22.2571 -0.417316 24.818 1.30915C26.1926 2.23584 27.1776 3.51506 27.7456 5.11142C27.8652 5.44732 27.8134 5.82035 27.6071 6.11108C27.402 6.40027 27.0694 6.57188 26.7151 6.57188C26.7132 6.57188 26.7112 6.57188 26.7093 6.57188L21.6331 6.55641C21.0362 6.55761 20.5324 7.06211 20.5324 7.65909C20.5324 8.25591 21.0358 8.7603 21.6323 8.76189L26.7094 8.74641H26.7152C27.0696 8.74641 27.4021 8.91808 27.6073 9.20727C27.8136 9.49805 27.8653 9.87113 27.7457 10.207C27.3504 11.3173 26.7487 12.2816 25.9572 13.0731C25.103 13.9273 24.0512 14.5745 22.9158 14.9447C21.8138 15.304 20.6259 15.4062 19.4803 15.2404C18.4538 15.0918 17.4095 15.4336 16.688 16.155L11.8708 20.9584C11.4201 21.4092 11.1605 22.0753 11.1003 22.9373C10.9757 24.7233 10.0102 26.2907 8.45138 27.2376C7.61322 27.7466 6.64025 28 5.66641 28ZM17.5528 3.07176C15.7152 4.31029 14.7922 6.39715 15.144 8.51792C15.4108 10.1257 14.8307 11.8249 13.5923 13.0634L8.98169 17.6602C7.98384 18.6581 6.76041 19.228 5.53784 19.264C4.70499 19.2885 3.92431 19.6239 3.3398 20.2084C2.6376 20.9106 2.29377 21.8807 2.39648 22.87C2.50066 23.8737 3.03644 24.7389 3.90517 25.3063C4.9174 25.9673 6.28795 25.9921 7.31566 25.3678C8.25947 24.7945 8.84355 23.8531 8.91809 22.785C9.01461 21.4013 9.50112 20.2344 10.3251 19.4105L15.1422 14.6071C16.348 13.4013 18.0874 12.8283 19.7937 13.0754C21.4964 13.3218 23.1793 12.7573 24.4104 11.5262C24.5912 11.3454 24.7584 11.1509 24.9114 10.9435L21.641 10.9493C21.639 10.9493 21.6371 10.9493 21.6351 10.9493C19.8209 10.9493 18.3448 9.47328 18.3448 7.65898C18.3448 5.84491 19.8207 4.36892 21.6349 4.36875H21.6409L24.9141 4.37455C24.5566 3.89072 24.1189 3.47596 23.5952 3.12289C21.7943 1.90886 19.3096 1.88781 17.5528 3.07176Z" fill="#F79009"/>
<path d="M5.6601 23.6223C6.26416 23.6223 6.75385 23.1326 6.75385 22.5286C6.75385 21.9245 6.26416 21.4348 5.6601 21.4348C5.05603 21.4348 4.56635 21.9245 4.56635 22.5286C4.56635 23.1326 5.05603 23.6223 5.6601 23.6223Z" fill="#6610F2"/>
</g>
<defs>
<clipPath id="clip0_181_1308">
<rect width="28" height="28" fill="white"/>
</clipPath>
</defs>
</svg>
