<svg width="20" height="20" viewBox="0 0 20 20" fill="none" xmlns="http://www.w3.org/2000/svg">
<g clip-path="url(#clip0_932_1950)">
<path d="M6.66669 13.3333V15.6666C6.66669 16.6 6.66669 17.0668 6.84834 17.4233C7.00813 17.7369 7.2631 17.9918 7.5767 18.1516C7.93322 18.3333 8.39993 18.3333 9.33335 18.3333H15.6667C16.6001 18.3333 17.0668 18.3333 17.4233 18.1516C17.7369 17.9918 17.9919 17.7369 18.1517 17.4233C18.3334 17.0668 18.3334 16.6 18.3334 15.6666V9.33329C18.3334 8.39987 18.3334 7.93316 18.1517 7.57664C17.9919 7.26304 17.7369 7.00807 17.4233 6.84828C17.0668 6.66663 16.6001 6.66663 15.6667 6.66663H13.3334M4.33335 13.3333H10.6667C11.6001 13.3333 12.0668 13.3333 12.4233 13.1516C12.7369 12.9918 12.9919 12.7369 13.1517 12.4233C13.3334 12.0668 13.3334 11.6 13.3334 10.6666V4.33329C13.3334 3.39987 13.3334 2.93316 13.1517 2.57664C12.9919 2.26304 12.7369 2.00807 12.4233 1.84828C12.0668 1.66663 11.6001 1.66663 10.6667 1.66663H4.33335C3.39993 1.66663 2.93322 1.66663 2.5767 1.84828C2.2631 2.00807 2.00813 2.26304 1.84834 2.57664C1.66669 2.93316 1.66669 3.39987 1.66669 4.33329V10.6666C1.66669 11.6 1.66669 12.0668 1.84834 12.4233C2.00813 12.7369 2.2631 12.9918 2.5767 13.1516C2.93322 13.3333 3.39993 13.3333 4.33335 13.3333Z" stroke="white" stroke-width="2" stroke-linecap="round" stroke-linejoin="round"/>
</g>
<defs>
<clipPath id="clip0_932_1950">
<rect width="20" height="20" fill="white"/>
</clipPath>
</defs>
</svg>
