<svg width="16" height="16" viewBox="0 0 16 16" fill="none" xmlns="http://www.w3.org/2000/svg">
<path d="M14.6666 6.66665V6.14497C14.6666 4.85189 14.6666 4.20536 14.2761 3.80365C13.8856 3.40194 13.257 3.40194 12 3.40194H10.6142C10.0026 3.40194 9.99758 3.40075 9.44765 3.12554L7.22658 2.01407C6.29921 1.55001 5.83553 1.31797 5.34157 1.3341C4.8476 1.35023 4.39916 1.61203 3.50228 2.13565L2.6837 2.61356C2.02491 2.99817 1.69551 3.19049 1.51441 3.51041C1.33331 3.83033 1.33331 4.21993 1.33331 4.99913V10.4771C1.33331 11.5009 1.33331 12.0128 1.56149 12.2978C1.71332 12.4873 1.92609 12.6148 2.16131 12.657C2.51482 12.7205 2.94763 12.4678 3.81323 11.9624C4.40102 11.6193 4.96672 11.2629 5.66989 11.3596C6.25911 11.4405 6.80665 11.8123 7.33331 12.0758" stroke="#667085" stroke-linecap="round" stroke-linejoin="round"/>
<path d="M5.33331 1.33331V11.3333" stroke="#667085" stroke-linejoin="round"/>
<path d="M10 3.33331V6.33331" stroke="#667085" stroke-linecap="round" stroke-linejoin="round"/>
<path d="M12.2056 14.4557C12.061 14.591 11.8678 14.6667 11.6668 14.6667C11.4657 14.6667 11.2725 14.591 11.128 14.4557C9.80422 13.2087 8.03035 11.8157 8.89542 9.7932C9.36315 8.69973 10.486 8 11.6668 8C12.8476 8 13.9704 8.69973 14.4381 9.7932C15.3021 11.8131 13.5326 13.2129 12.2056 14.4557Z" stroke="#667085"/>
<path d="M11.6667 11H11.6727" stroke="#667085" stroke-width="1.33333" stroke-linecap="round" stroke-linejoin="round"/>
</svg>
