<svg width="40" height="40" viewBox="0 0 40 40" fill="none" xmlns="http://www.w3.org/2000/svg">
<g clip-path="url(#clip0_613_14682)">
<path d="M0 20C0 31.0457 8.95431 40 20 40C31.0457 40 40 31.0457 40 20C40 8.95431 31.0457 0 20 0C8.95431 0 0 8.95431 0 20Z" fill="#ECECED"/>
<path d="M-5.30933 26.8717C-7.03725 37.7814 0.406046 48.0262 11.3158 49.7541C22.2255 51.4821 32.4703 44.0387 34.1982 33.129C35.9261 22.2193 28.4828 11.9745 17.5731 10.2466C6.66342 8.51866 -3.5814 15.962 -5.30933 26.8717Z" fill="#AEB2BB"/>
<path d="M8.78351 25.2285C8.61064 26.32 9.02296 27.4583 9.92976 28.3931C10.8366 29.3278 12.1636 29.9825 13.6189 30.213C15.0741 30.4435 16.5385 30.2309 17.6898 29.6221C18.8411 29.0133 19.585 28.0581 19.7578 26.9667" fill="white"/>
<path d="M7.83262 20.5779C7.92862 19.9718 7.63794 19.4221 7.18336 19.3501C6.72879 19.2781 6.28247 19.7111 6.18647 20.3172C6.09048 20.9233 6.38116 21.473 6.83573 21.545C7.2903 21.6169 7.73663 21.184 7.83262 20.5779Z" fill="white"/>
<path d="M23.1966 23.0115C23.2926 22.4054 23.0019 21.8557 22.5474 21.7837C22.0928 21.7117 21.6465 22.1447 21.5505 22.7508C21.4545 23.3568 21.7452 23.9065 22.1997 23.9785C22.6543 24.0505 23.1006 23.6176 23.1966 23.0115Z" fill="white"/>
</g>
<defs>
<clipPath id="clip0_613_14682">
<rect width="40" height="40" rx="20" fill="white"/>
</clipPath>
</defs>
</svg>
